<svg xmlns="http://www.w3.org/2000/svg" width="200" height="200"><path d="M173 38.188c4.629 3.969 8.236 9.049 12 13.812l2.164 2.645C189.538 57.69 192 61.028 192 65h2q.973 3.092 1.938 6.188l1.09 3.48C200.591 86.88 199.477 97.454 194 109a108 108 0 0 1-4 5 1179 1179 0 0 0-3.603 5.012c-5.873 8.199-12.258 15.818-18.963 23.344-1.375 1.577-2.69 3.19-4 4.82-2.335 2.71-4.66 4.784-7.496 6.949-3.211 2.464-6.101 4.991-8.938 7.875-12.104 10.698-27.523 16.594-43.562 16.5l-3.147-.002C90.923 178.319 82.714 176.315 74 173v-2l-2.586-.754c-3.656-1.334-6.791-3.079-10.039-5.184l-1.834-1.183c-5.434-3.613-10.155-7.8-14.853-12.309a153 153 0 0 0-7.063-6.32c-3.062-2.65-5.672-5.485-8.238-8.613-1.345-1.587-2.76-3.014-4.262-4.45C23 130 23 130 23 128l-3-1c-1.578-1.75-1.578-1.75-3.25-4-1.82-2.438-3.624-4.85-5.586-7.176C3.554 106.734.066 97.695.52 85.758c.982-7.685 3.08-15.177 9.105-20.383A450 450 0 0 1 13 63l1.45-1.512c5.762-5.53 13.984-6.068 21.576-5.958 9.211.406 16.487 3.104 23.189 9.462 2.518 2.833 4.573 5.867 6.558 9.09C66.986 76.129 66.986 76.129 69 78l.621-2.957.817-3.856.808-3.832C72 64 72 64 73 61h2l.875-3.75C80.112 44.478 92.412 34.825 104 29l3.188-1.625c23.52-9.506 46.19-3.495 65.812 10.813M121 41v2l-1.687.078C110.197 43.756 103.295 47.38 97 54c-7.513 9.03-9.657 18.85-9.34 30.445 1.533 16.035 10.716 25.67 22.07 36.153C111 122 111 122 111 124c-6.715 5.24-13.909 4.375-22 4l-1-2a109 109 0 0 0-4.125-2.25c-7.98-4.67-14.3-11.331-20.875-17.75l-3.16-3.04c-6.122-5.978-11.529-12.183-16.403-19.214L42 82h-2l-.75-2.312C37.848 76.673 36.86 75.635 34 74c-2.9-.967-4.528-1.118-7.5-.375-3.33 1.832-5.238 3.272-7.5 6.375-1.173 4.69-.896 8.426 1.508 12.648 1.724 2.288 3.4 4.393 5.492 6.352h2l.73 2.156c1.46 3.268 3.29 5.6 5.583 8.344l2.3 2.781C39.86 115.98 43.22 119.35 47 122.5c2.845 2.37 5.383 4.883 8 7.5a283 283 0 0 0 4.063 3.75l1.972 1.797c1.87 1.582 1.87 1.582 4.149 1.969L67 138l1 3c11 7.993 24.567 11.624 37.96 9.54 12.248-2.677 20.641-9.588 30.04-17.54l3.125-2.375c3.646-3.33 6.614-7.045 9.688-10.902a158 158 0 0 1 5.687-6.66c2.595-2.688 2.595-2.688 2.906-5.13.594-1.933.594-1.933 2.5-2.953L162 104c1.473-1.863 2.572-3.812 3.762-5.867C167 96 167 96 168.207 94.305 171.741 89.135 171.79 84.098 171 78c-1.917-8.592-6.296-14.472-12-21l-2.027-2.598C151.558 47.81 144.272 43.938 136 42l-3 1v-2z"/><path d="M138.387 66.777c5.865 5.655 5.865 5.655 6.613 10.223h2v10h-2l-.652 2.086c-1.74 3.76-4.17 6.465-6.91 9.539-3.906 4.25-3.906 4.25-6.438 9.375-3 0-3 0-4.473-1.398l-1.59-1.977c-2.887-3.486-5.958-6.581-9.25-9.687-4.554-4.541-6.45-7.58-6.804-14.086.14-5.893 2.337-9.02 6.328-13.223 6.554-5.967 16.066-6.146 23.176-.852M55 162l2 1ZM70 140l2 1ZM129 135l2 1Z"/></svg>